<?xml version="1.0" encoding="utf-8"?>
<svg viewBox="155.751 10 67.559 80.001" xmlns="http://www.w3.org/2000/svg">
  <path fill="#81A1C1" d="M174.634 34.865l-.023.088-7.352.046-3 6.62 8.586 18.619 14.418 28.286 6.945-8.557 1.833-9.166 11.028-2.75 5.464-10.693 7.035-3.667 2.195-18.826z"/>
  <path fill="#5E81AC" d="M187.263 88.524L173.125 77.83l-3.36-15.278-12.528-9.167 1.236-18.52h16.161l-3.647 13.632 8.554 7.638v9.777l5.961 8.556z"/>
  <path fill="#88C0D0" d="M187.943 18.652l-11.001.967-5.703 6.214-8.556 2.071-4.21 6.961h16.161l10.273-2.811 9.971-4.049 4.271-6.672.745-9.862z"/>
  <path fill="#BDDEF6" d="M212.533 25.833l-23.467 9.032h-14.432l6.112-8.998 12.221-1.941 6.927-12.455 8.828 5.977z"/>
  <path fill="#88C0D0" d="M204.466 23.926l-3.813 4.45-7.229 1.221-4.358 5.268h18.003l8.417-2.95 2.511-4.79z"/>
  <path fill="#BDDEF6" d="M221.763 34.865h-14.694l10.928-7.74z"/>
  <path fill="#3B4252" d="M 223.31 36.605 C 223.31 34.73 223.151 33.329 223.151 33.343 L 219.334 26.485 C 219.135 26.087 218.772 25.796 218.34 25.689 L 213.584 24.565 L 210.073 16.842 C 209.96 16.592 209.78 16.379 209.553 16.227 L 200.725 10.25 C 200.244 9.933 199.625 9.917 199.127 10.207 L 187.47 17.212 L 176.811 18.149 C 176.441 18.182 176.098 18.352 175.847 18.626 L 170.449 24.506 L 162.332 26.47 C 161.947 26.564 161.616 26.807 161.411 27.146 L 157.901 32.935 L 156.93 35.927 L 155.754 53.297 C 155.72 53.805 155.948 54.294 156.359 54.595 L 168.434 63.43 L 171.674 78.159 C 171.75 78.505 171.947 78.811 172.229 79.024 L 186.367 89.718 C 186.369 89.72 186.371 89.721 186.373 89.722 C 186.986 90.176 187.934 90.065 188.416 89.469 L 195.36 80.914 C 195.512 80.726 195.616 80.505 195.663 80.268 L 197.311 72.024 L 207.426 69.503 C 207.843 69.399 208.194 69.119 208.39 68.737 L 213.639 58.465 L 220.253 55.018 C 220.69 54.79 220.985 54.362 221.042 53.872 L 223.31 36.605 Z M 192.224 33.388 L 194.218 30.978 L 200.9 29.851 C 201.243 29.793 201.555 29.617 201.781 29.353 L 205.007 25.589 L 214.455 27.822 L 206.597 33.387 L 192.224 33.387 L 192.224 33.388 Z M 217.428 29.359 L 219.388 33.388 L 211.738 33.388 L 217.428 29.359 Z M 209.927 23.699 L 204.809 22.49 C 204.268 22.362 203.701 22.547 203.339 22.969 L 199.875 27.012 L 193.178 28.142 C 192.826 28.202 192.508 28.385 192.281 28.66 L 188.367 33.389 L 177.44 33.389 L 181.613 27.243 L 193.201 25.404 C 193.652 25.332 194.045 25.057 194.266 24.658 L 200.404 13.621 L 207.541 18.453 L 209.927 23.699 Z M 163.634 29.211 L 171.588 27.286 C 171.874 27.216 172.134 27.063 172.333 26.847 L 177.647 21.058 L 188.072 20.142 C 188.297 20.121 188.514 20.05 188.707 19.935 L 195.892 15.618 L 192.019 22.582 L 180.511 24.409 C 180.106 24.473 179.745 24.702 179.515 25.042 L 173.846 33.389 L 161.107 33.389 L 163.634 29.211 Z M 171.215 62.242 C 171.137 61.888 170.933 61.576 170.641 61.362 L 158.773 52.678 L 159.862 36.36 L 172.698 36.36 L 169.551 48.122 C 169.406 48.664 169.578 49.241 169.997 49.614 L 178.056 56.81 L 178.056 65.922 C 178.056 66.225 178.149 66.522 178.323 66.771 L 184.074 75.026 L 185.351 85.223 L 174.458 76.984 L 171.215 62.242 Z M 211.847 56.049 C 211.574 56.192 211.351 56.416 211.211 56.69 L 206.054 66.783 L 195.682 69.369 C 195.125 69.509 194.697 69.956 194.585 70.519 L 192.823 79.326 L 188.305 84.892 L 186.977 74.292 C 186.947 74.053 186.859 73.825 186.722 73.627 L 181.027 65.455 L 181.027 56.143 C 181.027 55.72 180.846 55.317 180.531 55.035 L 172.657 48.006 L 175.773 36.36 L 220.093 36.36 L 218.182 52.747 L 211.847 56.049 Z"/>
</svg>